Coordinates
version=1
nRows=18
nColumns=63
inDegrees=yes

Units are S.I. units (second, meters, Newtons, ...)
If the header above contains a line with 'inDegrees', this indicates whether rotational values are in degrees (yes) or radians (no).

endheader
time	pelvis_tilt	pelvis_list	pelvis_rotation	pelvis_tx	pelvis_ty	pelvis_tz	hip_flexion_r	hip_adduction_r	hip_rotation_r	knee_angle_r	knee_angle_r_beta	ankle_angle_r	subtalar_angle_r	mtp_angle_r	hip_flexion_l	hip_adduction_l	hip_rotation_l	knee_angle_l	knee_angle_l_beta	ankle_angle_l	subtalar_angle_l	mtp_angle_l	L5_S1_Flex_Ext	L5_S1_Lat_Bending	L5_S1_axial_rotation	L4_L5_Flex_Ext	L4_L5_Lat_Bending	L4_L5_axial_rotation	L3_L4_Flex_Ext	L3_L4_Lat_Bending	L3_L4_axial_rotation	L2_L3_Flex_Ext	L2_L3_Lat_Bending	L2_L3_axial_rotation	L1_L2_Flex_Ext	L1_L2_Lat_Bending	L1_L2_axial_rotation	L1_T12_Flex_Ext	L1_T12_Lat_Bending	L1_T12_axial_rotation	Abs_r3	Abs_r2	Abs_r1	Abs_t1	Abs_t2	neck_flexion	neck_bending	neck_rotation	arm_flex_r	arm_add_r	arm_rot_r	elbow_flex_r	pro_sup_r	wrist_flex_r	wrist_dev_r	arm_flex_l	arm_add_l	arm_rot_l	elbow_flex_l	pro_sup_l	wrist_flex_l	wrist_dev_l
0.000000	-6.725127	-5.193635	94.992486	0.308156	0.754046	0.882885	0.649243	-0.264325	3.767083	1.234122	0.021539	13.661718	-10.997422	0.000000	1.780591	2.119016	14.317563	3.296654	0.057537	7.147592	-15.294243	0.000000	0.154161	-0.159301	-0.205590	0.286293	-0.211870	-0.218439	0.253271	-0.387323	-0.218439	0.176191	-0.387323	-0.179891	0.143154	-0.324846	-0.167042	0.088088	-0.246757	-0.154192	1.101158	-1.802039	-1.143428	0.000000	0.000000	23.651686	1.758453	-5.294987	13.789099	-6.382692	71.736047	40.179469	6.551397	6.563217	0.092628	6.685615	-10.299566	45.458644	53.205675	87.952490	11.670966	3.177818
0.020408	-6.754940	-5.066427	95.020535	0.308351	0.754574	0.883592	0.639537	-0.326688	3.220761	1.120703	0.019560	14.757001	-9.436394	0.000000	1.791703	2.096611	12.618203	3.321899	0.057978	8.142943	-12.883362	0.000000	0.128940	-0.163420	-0.076168	0.239455	-0.217349	-0.080928	0.211836	-0.397339	-0.080928	0.147366	-0.397339	-0.066647	0.119734	-0.333246	-0.061886	0.073677	-0.253138	-0.057126	0.921008	-1.848640	-0.423622	0.000000	0.000000	22.769345	1.124091	-6.069435	12.695734	-6.342378	68.759348	40.622590	8.128318	5.694217	-0.496347	7.487427	-10.229906	46.819352	52.689896	87.829918	12.406373	3.521393
0.040816	-6.798904	-4.977292	95.040784	0.308504	0.754940	0.884160	0.647823	-0.404672	2.530209	1.062750	0.018548	15.712486	-7.827608	0.000000	1.818295	2.095633	11.156488	3.343825	0.058361	9.012876	-10.817542	0.000000	0.109846	-0.169053	0.026893	0.203996	-0.224841	0.028574	0.180467	-0.411036	0.028574	0.125544	-0.411036	0.023532	0.102003	-0.344733	0.021851	0.062766	-0.261864	0.020170	0.784622	-1.912365	0.149572	0.000000	0.000000	22.121670	0.641449	-6.671549	11.806464	-6.290484	66.315737	40.934761	9.576303	5.078627	-0.930436	8.125205	-10.191079	47.886012	52.307221	87.733670	13.102722	3.904696
0.061224	-6.854185	-4.921992	95.054119	0.308615	0.755163	0.884602	0.671840	-0.494921	1.717696	1.053801	0.018392	16.539365	-6.187379	0.000000	1.858038	2.112857	9.916368	3.363117	0.058697	9.765922	-9.072116	0.000000	0.096293	-0.175829	0.105163	0.178826	-0.233852	0.111736	0.158200	-0.427510	0.111736	0.110053	-0.427510	0.092018	0.089418	-0.358550	0.085445	0.055022	-0.272359	0.078872	0.687812	-1.989008	0.584886	0.000000	0.000000	21.684560	0.296751	-7.112592	11.106721	-6.228569	64.369455	41.129127	10.891699	4.689189	-1.227950	8.610692	-10.179441	48.679750	52.045437	87.661599	13.757919	4.319565
0.081633	-6.917946	-4.896289	95.061424	0.308689	0.755259	0.884931	0.709329	-0.594079	0.805490	1.087396	0.018979	17.248829	-4.532021	0.000000	1.908603	2.145058	8.881792	3.380457	0.059000	10.410612	-7.622415	0.000000	0.087694	-0.183374	0.160212	0.162856	-0.243888	0.170226	0.144072	-0.445856	0.170226	0.100225	-0.445856	0.140186	0.081432	-0.373937	0.130173	0.050108	-0.284047	0.120159	0.626386	-2.074365	0.891053	0.000000	0.000000	21.433913	0.076220	-7.403823	10.581935	-6.158192	62.884742	41.218833	12.070850	4.498641	-1.407200	8.955631	-10.191348	49.221690	51.892334	87.611559	14.369872	4.757838
0.102041	-6.987353	-4.895946	95.063587	0.308726	0.755248	0.885160	0.758028	-0.698793	-0.184139	1.157074	0.020195	17.852070	-2.877850	0.000000	1.967661	2.189010	8.036710	3.396527	0.059281	10.955479	-6.443770	0.000000	0.083461	-0.191318	0.193611	0.154996	-0.254453	0.205712	0.137119	-0.465171	0.205712	0.095388	-0.465171	0.169410	0.077502	-0.390136	0.157309	0.047690	-0.296352	0.145208	0.596156	-2.164228	1.076806	0.000000	0.000000	21.345630	-0.033920	-7.556501	10.217539	-6.080912	61.825839	41.217025	13.110101	4.479724	-1.486496	9.171766	-10.223154	49.532959	51.835699	87.581404	14.936485	5.211353
0.122449	-7.059569	-4.916724	95.061493	0.308730	0.755146	0.885303	0.815677	-0.805707	-1.228923	1.256374	0.021928	18.360280	-1.241181	0.000000	2.032882	2.241487	7.365071	3.412011	0.059551	11.409053	-5.511512	0.000000	0.083010	-0.199289	0.206929	0.154158	-0.265054	0.219862	0.136377	-0.484551	0.219862	0.094872	-0.484551	0.181063	0.077083	-0.406390	0.168130	0.047432	-0.308698	0.155197	0.592931	-2.254394	1.150877	0.000000	0.000000	21.395608	-0.047444	-7.581889	9.998964	-5.998288	61.156985	41.136848	14.005796	4.605177	-1.484150	9.270840	-10.271217	49.634681	51.863321	87.568986	15.455665	5.671948
0.142857	-7.131760	-4.954387	95.056027	0.308702	0.754972	0.885371	0.880017	-0.911467	-2.306591	1.378836	0.024065	18.784651	0.361673	0.000000	2.101937	2.299265	6.850825	3.427591	0.059823	11.779867	-4.800974	0.000000	0.085752	-0.206914	0.201737	0.159251	-0.275196	0.214345	0.140883	-0.503091	0.214345	0.098006	-0.503091	0.176520	0.079630	-0.421939	0.163911	0.048999	-0.320510	0.151303	0.612521	-2.340655	1.121999	0.000000	0.000000	21.559747	0.021871	-7.491245	9.911641	-5.911880	60.842423	40.991447	14.754280	4.847740	-1.418472	9.264596	-10.331892	49.547980	51.962988	87.572159	15.925319	6.131461
0.163265	-7.201089	-5.004696	95.048074	0.308646	0.754743	0.885379	0.948787	-1.012717	-3.394875	1.517998	0.026494	19.136375	1.914396	0.000000	2.172498	2.359118	6.477921	3.443950	0.060108	12.076452	-4.287486	0.000000	0.091103	-0.213823	0.179604	0.169187	-0.284384	0.190830	0.149672	-0.519889	0.190830	0.104121	-0.519889	0.157154	0.084598	-0.436027	0.145928	0.052056	-0.331211	0.134703	0.650737	-2.418806	0.998905	0.000000	0.000000	21.813947	0.160251	-7.295830	9.941003	-5.823247	60.846391	40.793970	15.351899	5.180154	-1.307773	9.164777	-10.401534	49.293982	52.122489	87.588776	16.343352	6.581730
0.183673	-7.264721	-5.063414	95.038522	0.308563	0.754478	0.885339	1.019726	-1.106102	-4.471506	1.667400	0.029102	19.426642	3.400674	0.000000	2.242234	2.417821	6.230308	3.461770	0.060419	12.307339	-3.946380	0.000000	0.098474	-0.219643	0.142102	0.182876	-0.292125	0.150983	0.161782	-0.534039	0.150983	0.112546	-0.534039	0.124339	0.091443	-0.447895	0.115458	0.056268	-0.340226	0.106576	0.703388	-2.484642	0.790327	0.000000	0.000000	22.134105	0.353918	-7.006904	10.072481	-5.733948	61.133130	40.557560	15.794996	5.575158	-1.170364	8.983126	-10.476501	48.893812	52.329611	87.616691	16.707671	7.014593
0.204082	-7.319821	-5.126303	95.028255	0.308456	0.754193	0.885264	1.090575	-1.188268	-5.514214	1.820582	0.031775	19.666646	4.804191	0.000000	2.308816	2.472147	6.091936	3.481735	0.060768	12.481061	-3.752988	0.000000	0.107279	-0.224002	0.090799	0.199228	-0.297923	0.096474	0.176249	-0.544639	0.096474	0.122609	-0.544639	0.079449	0.099619	-0.456785	0.073774	0.061299	-0.346979	0.068099	0.766285	-2.533956	0.504999	0.000000	0.000000	22.496121	0.589098	-6.635728	10.291506	-5.645543	61.666881	40.295363	16.079918	6.005491	-1.024556	8.731387	-10.553146	48.368594	52.572143	87.653756	17.016181	7.421889
0.224490	-7.358635	-5.165896	95.029644	0.308303	0.753971	0.885254	1.140695	-1.251472	-6.556597	1.980619	0.034568	19.842403	6.133211	0.000000	2.357610	2.513935	5.998942	3.512390	0.061303	12.629741	-3.619349	0.000000	0.113471	-0.225986	0.035045	0.210726	-0.300562	0.037235	0.186421	-0.549463	0.037235	0.129686	-0.549463	0.030664	0.105369	-0.460831	0.028474	0.064837	-0.350053	0.026284	0.810509	-2.556403	0.194910	0.000000	0.000000	22.822423	0.839090	-6.242765	10.587527	-5.584449	62.434859	40.088742	15.980870	6.313976	-0.979822	8.494340	-10.605837	47.841681	52.793963	87.682052	17.328741	7.858058
0.244898	-7.381334	-5.214677	95.032818	0.308127	0.753747	0.885196	1.198653	-1.292659	-7.366410	2.109106	0.036811	20.036249	7.203880	0.000000	2.399158	2.547814	6.109370	3.524212	0.061509	12.685842	-3.754528	0.000000	0.122185	-0.224991	-0.046939	0.226910	-0.299237	-0.049873	0.200738	-0.547042	-0.049873	0.139645	-0.547042	-0.041072	0.113461	-0.458801	-0.038138	0.069817	-0.348510	-0.035204	0.872756	-2.545138	-0.261061	0.000000	0.000000	23.121089	1.091858	-5.712598	10.961271	-5.499446	63.492751	39.860094	15.532423	6.648530	-1.039014	8.125784	-10.656228	47.076994	53.048847	87.732379	17.559994	8.185462
0.265306	-7.376865	-5.254082	95.022385	0.307969	0.753554	0.885138	1.255942	-1.302670	-8.107707	2.215010	0.038659	20.270449	8.260476	0.000000	2.445141	2.548946	6.072618	3.577748	0.062443	12.804532	-3.669285	0.000000	0.130083	-0.219373	-0.148053	0.241578	-0.291766	-0.157306	0.213714	-0.533383	-0.157306	0.148672	-0.533383	-0.129546	0.120796	-0.447345	-0.120293	0.074330	-0.339808	-0.111039	0.929173	-2.481588	-0.823424	0.000000	0.000000	23.390238	1.376807	-4.998985	11.398014	-5.400273	64.764402	39.615339	15.058544	6.927227	-1.286310	7.671504	-10.712086	46.171845	53.344817	87.789574	17.626444	8.458744
0.285714	-7.349224	-5.281743	95.015403	0.307793	0.753411	0.885082	1.307070	-1.285026	-8.759505	2.294479	0.040046	20.539254	9.243867	0.000000	2.479010	2.529950	6.083637	3.639657	0.063524	12.912758	-3.614497	0.000000	0.137589	-0.210090	-0.262911	0.255517	-0.279420	-0.279343	0.226046	-0.510813	-0.279343	0.157251	-0.510813	-0.230048	0.127765	-0.428416	-0.213616	0.078619	-0.325430	-0.197184	0.982787	-2.376583	-1.462235	0.000000	0.000000	23.605672	1.635264	-4.232119	11.867603	-5.298614	66.105868	39.371463	14.562602	7.151121	-1.474803	7.169209	-10.765102	45.190046	53.641076	87.849257	17.600080	8.648180
0.306122	-7.298394	-5.300687	95.025665	0.307575	0.753326	0.885032	1.350482	-1.238632	-9.202090	2.340182	0.040844	20.782335	9.941728	0.000000	2.496540	2.494992	6.274445	3.689021	0.064386	12.944116	-3.776201	0.000000	0.145822	-0.198048	-0.381160	0.270806	-0.263404	-0.404983	0.239571	-0.481535	-0.404983	0.166660	-0.481535	-0.333515	0.135410	-0.403860	-0.309693	0.083323	-0.306777	-0.285870	1.041591	-2.240364	-2.119898	0.000000	0.000000	23.749650	1.833343	-3.534572	12.326826	-5.211451	67.386627	39.152136	14.011454	7.319825	-1.531510	6.671969	-10.796844	44.214745	53.881591	87.927696	17.574093	8.734345
0.326531	-7.231400	-5.287675	95.018519	0.307387	0.753322	0.884998	1.361491	-1.169123	-9.494717	2.350592	0.041026	20.982705	10.460513	0.000000	2.486708	2.440508	6.366981	3.755402	0.065544	13.004446	-3.807914	0.000000	0.150694	-0.183944	-0.487365	0.279854	-0.244645	-0.517825	0.247575	-0.447240	-0.517825	0.172228	-0.447240	-0.426444	0.139934	-0.375098	-0.395984	0.086107	-0.284929	-0.365524	1.076392	-2.080806	-2.710577	0.000000	0.000000	23.835170	2.005015	-2.891794	12.755784	-5.154595	68.504090	38.975714	13.614540	7.417841	-1.435162	6.220162	-10.816293	43.343448	54.089419	87.978722	17.466300	8.805098
0.346939	-7.148833	-5.248201	95.012658	0.307203	0.753405	0.885005	1.344747	-1.077017	-9.571698	2.327863	0.040629	21.110034	10.665884	0.000000	2.444122	2.374111	6.602018	3.806385	0.066434	12.975322	-4.042086	0.000000	0.153047	-0.168916	-0.570747	0.284224	-0.224658	-0.606418	0.251441	-0.410703	-0.606418	0.174918	-0.410703	-0.499403	0.142120	-0.344454	-0.463732	0.087451	-0.261651	-0.428060	1.093201	-1.910812	-3.174321	0.000000	0.000000	23.840318	2.107951	-2.443925	13.112165	-5.141166	69.353025	38.866082	13.268755	7.434106	-1.153875	5.875517	-10.806821	42.684807	54.204030	88.010197	17.333199	8.790388
